<svg width="596" class="svg-end" height="500" viewBox="0 0 596 500" fill="none" xmlns="http://www.w3.org/2000/svg"><title></title>
<rect width="595" height="500" transform="translate(0.935303)" fill="white"></rect>
<path d="M548.968 433.966C377.954 555.043 216.666 16.1882 419.014 177.077" stroke="url(#swirl_end_0_linear)" stroke-width="0.45339" stroke-miterlimit="10"></path>
<path d="M546.535 433.801C474.592 484.707 380.037 388.555 344.509 300.911C329.15 262.71 314.425 218.158 320.727 189.718C329.101 151.92 358.8 130.693 417.782 180.988" stroke="url(#swirl_end_1_linear)" stroke-width="0.45339" stroke-miterlimit="10"></path>
<path d="M544.098 433.636C481.784 477.703 371.736 377.892 339.713 297.469C327.032 265.621 306.933 221.466 315.902 195.135C327.792 160.238 359.196 132.503 416.549 184.897" stroke="url(#swirl_end_2_linear)" stroke-width="0.45339" stroke-miterlimit="10"></path>
<path d="M541.665 433.471C488.975 470.693 363.484 367.205 334.916 294.023C324.959 268.512 299.476 224.68 311.081 200.552C326.535 168.417 359.591 134.314 415.32 188.809" stroke="url(#swirl_end_3_linear)" stroke-width="0.45339" stroke-miterlimit="10"></path>
<path d="M539.228 433.307C496.162 463.688 355.072 356.575 330.12 290.579C322.869 271.405 292.095 227.818 306.257 205.967C325.373 176.467 359.984 136.119 414.085 192.719" stroke="url(#swirl_end_4_linear)" stroke-width="0.45339" stroke-miterlimit="10"></path>
<path d="M536.795 433.142C503.357 456.681 346.273 346.077 325.323 287.137C320.762 274.299 284.824 230.912 301.432 211.384C324.354 184.435 360.379 137.929 412.852 196.63" stroke="url(#swirl_end_5_linear)" stroke-width="0.45339" stroke-miterlimit="10"></path>
<path d="M534.358 432.98C510.544 449.674 335.876 336.049 320.527 283.698C318.612 277.172 277.675 234.006 296.608 216.807C323.499 192.377 360.771 139.745 411.62 200.549" stroke="url(#swirl_end_6_linear)" stroke-width="0.45339" stroke-miterlimit="10"></path>
<path d="M531.925 432.815C517.739 442.667 331.969 323.881 315.731 280.252C317.135 279.901 270.641 237.136 291.784 222.221C322.792 200.348 361.167 141.552 410.388 204.457" stroke="url(#swirl_end_7_linear)" stroke-width="0.45339" stroke-miterlimit="10"></path>
<path d="M529.488 432.651C524.927 435.657 323.958 313.1 310.935 276.808C315.132 282.765 263.692 240.329 286.963 227.635C322.208 208.408 361.563 143.36 409.155 208.366" stroke="url(#swirl_end_8_linear)" stroke-width="0.45339" stroke-miterlimit="10"></path>
<path d="M527.055 432.485C532.118 428.654 315.948 302.321 306.138 273.365C313.13 285.631 256.791 243.606 282.139 233.055C321.693 216.586 361.958 145.17 407.923 212.281" stroke="url(#swirl_end_9_linear)" stroke-width="0.45339" stroke-miterlimit="10"></path>
<path d="M524.619 432.32C539.309 421.643 307.934 291.543 301.342 269.923C311.127 288.497 249.912 246.956 277.314 238.472C321.214 224.884 362.35 146.98 406.691 216.193" stroke="url(#swirl_end_10_linear)" stroke-width="0.45339" stroke-miterlimit="10"></path>
<path d="M522.185 432.154C546.499 414.636 299.927 280.764 296.545 266.477C309.124 291.36 243.025 250.362 272.489 243.885C320.73 233.282 362.742 148.782 405.458 220.101" stroke="url(#swirl_end_11_linear)" stroke-width="0.45339" stroke-miterlimit="10"></path>
<path d="M519.752 431.991C553.691 407.631 291.914 269.983 291.749 263.037C307.122 294.228 236.129 253.823 267.666 249.308C320.226 241.778 363.138 150.598 404.226 224.018" stroke="url(#swirl_end_12_linear)" stroke-width="0.45339" stroke-miterlimit="10"></path>
<path d="M517.315 431.826C560.882 400.624 283.903 259.205 286.952 259.591C305.119 297.09 229.21 252.047 262.844 254.721C319.683 259.237 363.533 152.405 402.997 227.923" stroke="url(#swirl_end_13_linear)" stroke-width="0.45339" stroke-miterlimit="10"></path>
<path d="M514.882 431.66C568.073 393.614 276.842 247.742 282.16 256.148C308.109 297.188 222.53 255.692 258.024 260.138C318.665 267.734 363.933 154.214 401.765 231.834" stroke="url(#swirl_end_14_linear)" stroke-width="0.45339" stroke-miterlimit="10"></path>
<path d="M512.445 431.496C575.264 386.607 268.793 237.104 277.36 252.707C304.055 301.315 215.773 259.377 253.196 265.559C317.674 276.204 364.321 156.025 400.529 235.75" stroke="url(#swirl_end_15_linear)" stroke-width="0.45339" stroke-miterlimit="10"></path>
<path d="M510.013 431.33C582.455 379.6 260.73 226.398 272.567 249.26C301.237 304.636 208.299 267.915 248.375 270.971C317.874 276.266 364.721 157.831 399.3 239.657" stroke="url(#swirl_end_16_linear)" stroke-width="0.45339" stroke-miterlimit="10"></path>
<path d="M507.576 431.165C589.647 372.594 252.664 215.666 267.767 245.819C298.786 307.738 201.283 271.474 243.547 276.389C317.194 284.957 365.109 159.642 398.064 243.57" stroke="url(#swirl_end_17_linear)" stroke-width="0.45339" stroke-miterlimit="10"></path>
<path d="M505.142 431C596.837 365.583 244.608 204.923 262.974 242.373C296.507 310.745 194.256 275.028 238.73 281.806C316.505 293.655 365.508 161.449 396.839 247.482" stroke="url(#swirl_end_18_linear)" stroke-width="0.45339" stroke-miterlimit="10"></path>
<path d="M502.705 430.836C604.028 358.577 236.552 194.177 258.177 238.932C294.308 313.71 187.212 278.592 233.905 287.224C315.78 302.359 365.903 163.259 395.603 251.394" stroke="url(#swirl_end_19_linear)" stroke-width="0.45339" stroke-miterlimit="10"></path>
<path d="M500.272 430.671C611.219 351.571 228.499 183.42 253.381 235.487C292.162 316.647 180.154 282.15 229.081 292.638C315.037 311.064 366.296 165.066 394.37 255.303" stroke="url(#swirl_end_20_linear)" stroke-width="0.45339" stroke-miterlimit="10"></path>
<path d="M497.836 430.506C618.407 344.564 220.451 172.662 248.582 232.045C290.044 319.569 173.086 285.711 224.253 298.058C314.275 319.776 366.688 166.877 393.135 259.218" stroke="url(#swirl_end_21_linear)" stroke-width="0.45339" stroke-miterlimit="10"></path>
<path d="M495.403 430.341C625.602 337.557 212.409 161.902 243.788 228.599C287.954 322.478 166.01 289.269 219.432 303.472C313.504 328.481 367.084 168.684 391.906 263.127" stroke="url(#swirl_end_22_linear)" stroke-width="0.45339" stroke-miterlimit="10"></path>
<path d="M492.969 430.177C632.793 330.548 204.367 151.138 238.992 225.158C285.878 325.383 158.928 292.831 214.611 308.893C312.723 337.193 367.483 170.498 390.677 267.043" stroke="url(#swirl_end_23_linear)" stroke-width="0.45339" stroke-miterlimit="10"></path>
<path d="M490.533 430.011C639.98 323.541 196.325 140.373 234.196 221.715C283.809 328.277 151.835 296.384 209.787 314.31C311.925 345.897 367.875 172.308 389.441 270.951" stroke="url(#swirl_end_24_linear)" stroke-width="0.45339" stroke-miterlimit="10"></path>
<path d="M488.099 429.85C647.175 316.538 188.287 129.613 229.399 218.274C281.75 331.172 144.738 299.943 204.962 319.727C311.12 354.603 368.267 174.115 388.209 274.864" stroke="url(#swirl_end_25_linear)" stroke-width="0.45339" stroke-miterlimit="10"></path>
<path d="M485.663 429.686C654.363 309.532 180.249 118.849 224.603 214.832C279.699 334.06 137.635 303.497 200.138 325.145C310.308 363.3 368.663 175.926 386.977 278.776" stroke="url(#swirl_end_26_linear)" stroke-width="0.45339" stroke-miterlimit="10"></path>
<path d="M483.23 429.52C661.557 302.521 172.214 108.08 219.807 211.386C277.654 336.943 130.527 307.047 195.314 330.561C309.485 371.997 369.055 177.736 385.744 282.687" stroke="url(#swirl_end_27_linear)" stroke-width="0.45339" stroke-miterlimit="10"></path>
<path d="M480.793 429.356C668.744 295.515 164.176 97.313 215.01 207.945C275.609 339.831 123.417 310.598 190.493 335.979C308.662 380.695 369.454 179.543 384.512 286.599" stroke="url(#swirl_end_28_linear)" stroke-width="0.45339" stroke-miterlimit="10"></path>
<path d="M478.36 429.19C675.936 288.507 156.144 86.5442 210.214 204.498C273.572 342.711 116.303 314.144 185.668 341.392C307.833 389.382 369.846 181.349 383.279 290.507" stroke="url(#swirl_end_29_linear)" stroke-width="0.45339" stroke-miterlimit="10"></path>
<path d="M475.923 429.025C683.127 281.498 148.109 75.7769 205.417 201.057C271.537 345.592 109.185 317.692 180.844 346.809C306.995 398.073 370.241 183.16 382.047 294.42" stroke="url(#swirl_end_30_linear)" stroke-width="0.45339" stroke-miterlimit="10"></path>
<path d="M473.49 428.861C690.318 274.491 140.078 65.0093 200.621 197.612C269.5 348.469 102.064 321.236 176.02 352.227C306.159 406.76 370.634 184.97 380.815 298.332" stroke="url(#swirl_end_31_linear)" stroke-width="0.45339" stroke-miterlimit="10"></path>
<path d="M471.053 428.696C697.509 267.485 132.043 54.2389 195.825 194.171C267.469 351.35 94.9432 324.784 171.195 357.645C305.315 415.445 371.026 186.778 379.582 302.245" stroke="url(#swirl_end_32_linear)" stroke-width="0.45339" stroke-miterlimit="10"></path>
<path d="M468.62 428.532C704.7 260.479 124.012 43.4711 191.028 190.729C265.439 354.231 87.8186 328.327 166.374 363.065C304.472 424.132 371.425 188.592 378.35 306.16" stroke="url(#swirl_end_33_linear)" stroke-width="0.45339" stroke-miterlimit="10"></path>
<path d="M466.187 428.365C711.891 253.471 115.676 32.8385 186.236 187.282C263.076 357.257 80.6977 331.866 161.553 368.477C303.628 432.81 371.821 190.397 377.121 310.067" stroke="url(#swirl_end_34_linear)" stroke-width="0.45339" stroke-miterlimit="10"></path>
<path d="M463.75 428.201C719.082 246.465 107.662 22.0611 181.439 183.841C261.077 360.125 73.5695 335.407 156.729 373.896C302.777 441.488 372.216 192.205 375.889 313.977" stroke="url(#swirl_end_35_linear)" stroke-width="0.45339" stroke-miterlimit="10"></path>
<path d="M461.317 428.036C726.273 239.455 99.6519 11.2831 176.643 180.395C259.074 362.988 66.4413 338.947 151.904 379.313C301.923 450.168 372.608 194.016 374.656 317.889" stroke="url(#swirl_end_36_linear)" stroke-width="0.45339" stroke-miterlimit="10"></path>
<path d="M458.88 427.871C733.465 232.448 91.6418 0.501327 171.846 176.954C257.072 365.854 59.3099 342.487 147.08 384.73C301.069 458.841 373.004 195.826 373.424 321.801" stroke="url(#swirl_end_37_linear)" stroke-width="0.45339" stroke-miterlimit="10"></path>
<path d="M456.447 427.707C740.655 225.442 83.6312 -10.2765 167.05 173.512C255.069 368.721 52.1782 346.028 142.259 390.148C300.214 467.519 373.399 197.634 372.191 325.713" stroke="url(#swirl_end_38_linear)" stroke-width="0.45339" stroke-miterlimit="10"></path>
<path d="M454.01 427.542C747.846 218.435 75.621 -21.055 162.253 170.067C253.066 371.584 45.0466 349.561 137.435 395.565C299.357 476.191 373.791 199.444 370.959 329.625" stroke="url(#swirl_end_39_linear)" stroke-width="0.45339" stroke-miterlimit="10"></path>
<path d="M451.577 427.378C755.038 211.426 67.6106 -31.8363 157.457 166.622C251.064 374.448 37.9116 353.094 132.61 400.979C298.495 484.858 374.187 201.251 369.727 333.534" stroke="url(#swirl_end_40_linear)" stroke-width="0.45339" stroke-miterlimit="10"></path>
<path d="M449.14 427.212C762.225 204.418 59.597 -42.6155 152.657 163.179C249.058 377.313 30.7732 356.63 127.783 406.396C297.634 493.527 374.576 203.061 368.491 337.445" stroke="url(#swirl_end_41_linear)" stroke-width="0.45339" stroke-miterlimit="10"></path>
<path d="M446.707 427.047C769.419 197.412 51.5864 -53.3932 147.864 159.737C247.058 380.18 23.6414 360.167 122.961 411.817C296.773 502.2 374.975 204.872 367.262 341.361" stroke="url(#swirl_end_42_linear)" stroke-width="0.45339" stroke-miterlimit="10"></path>
<path d="M444.274 426.882C776.611 190.405 43.5798 -64.1756 143.068 156.292C245.056 383.042 16.5065 363.7 118.141 417.23C295.915 510.863 375.37 206.678 366.03 345.269" stroke="url(#swirl_end_43_linear)" stroke-width="0.45339" stroke-miterlimit="10"></path>
<path d="M441.837 426.72C783.801 183.399 35.5657 -74.9537 138.271 152.85C243.053 385.909 9.37111 367.236 113.316 422.647C295.05 519.529 375.766 208.488 364.797 349.181" stroke="url(#swirl_end_44_linear)" stroke-width="0.45339" stroke-miterlimit="10"></path>
<path d="M439.404 426.556C790.993 176.393 27.5557 -85.7314 133.475 149.408C241.051 388.776 2.23294 370.77 108.492 428.068C294.186 528.199 376.158 210.299 363.565 353.098" stroke="url(#swirl_end_45_linear)" stroke-width="0.45339" stroke-miterlimit="10"></path>
<path d="M436.967 426.391C798.184 169.386 19.5451 -96.5103 128.679 145.963C239.048 391.639 -4.90591 374.299 103.667 433.482C293.321 536.861 376.55 212.106 362.333 357.002" stroke="url(#swirl_end_46_linear)" stroke-width="0.45339" stroke-miterlimit="10"></path>
<path d="M434.534 426.226C805.371 162.376 11.5313 -107.288 123.882 142.521C237.045 394.505 -12.041 377.833 98.843 438.899C292.456 545.524 376.946 213.916 361.1 360.914" stroke="url(#swirl_end_47_linear)" stroke-width="0.45339" stroke-miterlimit="10"></path>
<path d="M432.098 426.062C812.563 155.37 3.52154 -118.07 119.086 139.08C235.043 397.372 -19.2735 381.535 94.0226 444.32C291.431 554.485 377.342 215.727 359.868 364.83" stroke="url(#swirl_end_48_linear)" stroke-width="0.45339" stroke-miterlimit="10"></path>
<path d="M429.664 425.896C819.754 148.362 -4.4892 -128.849 114.29 135.633C233.04 400.234 -26.381 385.007 89.1978 449.733C290.614 563.045 377.737 217.533 358.636 368.738" stroke="url(#swirl_end_49_linear)" stroke-width="0.45339" stroke-miterlimit="10"></path>
<path d="M427.227 425.731C826.945 141.356 -12.4993 -139.627 109.493 132.191C231.038 403.101 -33.4913 388.484 84.3736 455.15C289.802 571.606 378.129 219.344 357.403 372.65" stroke="url(#swirl_end_50_linear)" stroke-width="0.45339" stroke-miterlimit="10"></path>
<path d="M424.794 425.566C834.136 134.349 -20.5095 -150.405 104.697 128.746C229.035 405.964 -40.5982 391.954 79.5494 460.568C288.99 580.171 378.525 221.154 356.171 376.562" stroke="url(#swirl_end_51_linear)" stroke-width="0.45339" stroke-miterlimit="10"></path>
<defs>
<linearGradient id="swirl_end_0_linear" x1="338.412" y1="130.788" x2="595.126" y2="388.876" gradientUnits="userSpaceOnUse">
<stop stop-color="#FFE7DF"></stop>
<stop offset="0.203125" stop-color="#AF9FC8"></stop>
<stop offset="1" stop-color="#48A6C8"></stop>
</linearGradient>
<linearGradient id="swirl_end_1_linear" x1="333.065" y1="135.814" x2="582.367" y2="397.185" gradientUnits="userSpaceOnUse">
<stop stop-color="#FFE7DF"></stop>
<stop offset="0.203125" stop-color="#AF9FC8"></stop>
<stop offset="1" stop-color="#48A6C8"></stop>
</linearGradient>
<linearGradient id="swirl_end_2_linear" x1="327.691" y1="140.653" x2="569.647" y2="404.891" gradientUnits="userSpaceOnUse">
<stop stop-color="#FFE7DF"></stop>
<stop offset="0.203125" stop-color="#AF9FC8"></stop>
<stop offset="1" stop-color="#48A6C8"></stop>
</linearGradient>
<linearGradient id="swirl_end_3_linear" x1="322.325" y1="145.321" x2="557.074" y2="412.006" gradientUnits="userSpaceOnUse">
<stop stop-color="#FFE7DF"></stop>
<stop offset="0.203125" stop-color="#AF9FC8"></stop>
<stop offset="1" stop-color="#48A6C8"></stop>
</linearGradient>
<linearGradient id="swirl_end_4_linear" x1="316.978" y1="149.833" x2="544.754" y2="418.574" gradientUnits="userSpaceOnUse">
<stop stop-color="#FFE7DF"></stop>
<stop offset="0.203125" stop-color="#AF9FC8"></stop>
<stop offset="1" stop-color="#48A6C8"></stop>
</linearGradient>
<linearGradient id="swirl_end_5_linear" x1="311.666" y1="154.223" x2="532.765" y2="424.67" gradientUnits="userSpaceOnUse">
<stop stop-color="#FFE7DF"></stop>
<stop offset="0.203125" stop-color="#AF9FC8"></stop>
<stop offset="1" stop-color="#48A6C8"></stop>
</linearGradient>
<linearGradient id="swirl_end_6_linear" x1="306.392" y1="158.52" x2="521.177" y2="430.37" gradientUnits="userSpaceOnUse">
<stop stop-color="#FFE7DF"></stop>
<stop offset="0.203125" stop-color="#AF9FC8"></stop>
<stop offset="1" stop-color="#48A6C8"></stop>
</linearGradient>
<linearGradient id="swirl_end_7_linear" x1="301.212" y1="162.73" x2="510.103" y2="435.701" gradientUnits="userSpaceOnUse">
<stop stop-color="#FFE7DF"></stop>
<stop offset="0.203125" stop-color="#AF9FC8"></stop>
<stop offset="1" stop-color="#48A6C8"></stop>
</linearGradient>
<linearGradient id="swirl_end_8_linear" x1="296.021" y1="166.881" x2="499.496" y2="440.846" gradientUnits="userSpaceOnUse">
<stop stop-color="#FFE7DF"></stop>
<stop offset="0.203125" stop-color="#AF9FC8"></stop>
<stop offset="1" stop-color="#48A6C8"></stop>
</linearGradient>
<linearGradient id="swirl_end_9_linear" x1="290.85" y1="170.989" x2="489.302" y2="445.898" gradientUnits="userSpaceOnUse">
<stop stop-color="#FFE7DF"></stop>
<stop offset="0.203125" stop-color="#AF9FC8"></stop>
<stop offset="1" stop-color="#48A6C8"></stop>
</linearGradient>
<linearGradient id="swirl_end_10_linear" x1="285.718" y1="175.074" x2="479.018" y2="451.051" gradientUnits="userSpaceOnUse">
<stop stop-color="#FFE7DF"></stop>
<stop offset="0.203125" stop-color="#AF9FC8"></stop>
<stop offset="1" stop-color="#48A6C8"></stop>
</linearGradient>
<linearGradient id="swirl_end_11_linear" x1="280.608" y1="179.134" x2="468.591" y2="456.206" gradientUnits="userSpaceOnUse">
<stop stop-color="#FFE7DF"></stop>
<stop offset="0.203125" stop-color="#AF9FC8"></stop>
<stop offset="1" stop-color="#48A6C8"></stop>
</linearGradient>
<linearGradient id="swirl_end_12_linear" x1="275.516" y1="183.187" x2="458.031" y2="461.265" gradientUnits="userSpaceOnUse">
<stop stop-color="#FFE7DF"></stop>
<stop offset="0.203125" stop-color="#AF9FC8"></stop>
<stop offset="1" stop-color="#48A6C8"></stop>
</linearGradient>
<linearGradient id="swirl_end_13_linear" x1="270.434" y1="188.7" x2="445.838" y2="466.897" gradientUnits="userSpaceOnUse">
<stop stop-color="#FFE7DF"></stop>
<stop offset="0.203125" stop-color="#AF9FC8"></stop>
<stop offset="1" stop-color="#48A6C8"></stop>
</linearGradient>
<linearGradient id="swirl_end_14_linear" x1="265.825" y1="192.632" x2="435.774" y2="471.178" gradientUnits="userSpaceOnUse">
<stop stop-color="#FFE7DF"></stop>
<stop offset="0.203125" stop-color="#AF9FC8"></stop>
<stop offset="1" stop-color="#48A6C8"></stop>
</linearGradient>
<linearGradient id="swirl_end_15_linear" x1="260.667" y1="196.542" x2="424.947" y2="475.528" gradientUnits="userSpaceOnUse">
<stop stop-color="#FFE7DF"></stop>
<stop offset="0.203125" stop-color="#AF9FC8"></stop>
<stop offset="1" stop-color="#48A6C8"></stop>
</linearGradient>
<linearGradient id="swirl_end_16_linear" x1="255.366" y1="199.162" x2="415.217" y2="479.174" gradientUnits="userSpaceOnUse">
<stop stop-color="#FFE7DF"></stop>
<stop offset="0.203125" stop-color="#AF9FC8"></stop>
<stop offset="1" stop-color="#48A6C8"></stop>
</linearGradient>
<linearGradient id="swirl_end_17_linear" x1="250.251" y1="203.109" x2="404.324" y2="482.981" gradientUnits="userSpaceOnUse">
<stop stop-color="#FFE7DF"></stop>
<stop offset="0.203125" stop-color="#AF9FC8"></stop>
<stop offset="1" stop-color="#48A6C8"></stop>
</linearGradient>
<linearGradient id="swirl_end_18_linear" x1="245.158" y1="207.036" x2="393.47" y2="486.464" gradientUnits="userSpaceOnUse">
<stop stop-color="#FFE7DF"></stop>
<stop offset="0.203125" stop-color="#AF9FC8"></stop>
<stop offset="1" stop-color="#48A6C8"></stop>
</linearGradient>
<linearGradient id="swirl_end_19_linear" x1="240.066" y1="210.948" x2="382.645" y2="489.63" gradientUnits="userSpaceOnUse">
<stop stop-color="#FFE7DF"></stop>
<stop offset="0.203125" stop-color="#AF9FC8"></stop>
<stop offset="1" stop-color="#48A6C8"></stop>
</linearGradient>
<linearGradient id="swirl_end_20_linear" x1="234.977" y1="214.842" x2="371.874" y2="492.48" gradientUnits="userSpaceOnUse">
<stop stop-color="#FFE7DF"></stop>
<stop offset="0.203125" stop-color="#AF9FC8"></stop>
<stop offset="1" stop-color="#48A6C8"></stop>
</linearGradient>
<linearGradient id="swirl_end_21_linear" x1="229.89" y1="208.762" x2="371.296" y2="493.014" gradientUnits="userSpaceOnUse">
<stop stop-color="#FFE7DF"></stop>
<stop offset="0.203125" stop-color="#AF9FC8"></stop>
<stop offset="1" stop-color="#48A6C8"></stop>
</linearGradient>
<linearGradient id="swirl_end_22_linear" x1="224.809" y1="202.466" x2="370.934" y2="493.5" gradientUnits="userSpaceOnUse">
<stop stop-color="#FFE7DF"></stop>
<stop offset="0.203125" stop-color="#AF9FC8"></stop>
<stop offset="1" stop-color="#48A6C8"></stop>
</linearGradient>
<linearGradient id="swirl_end_23_linear" x1="219.729" y1="196.032" x2="370.706" y2="493.949" gradientUnits="userSpaceOnUse">
<stop stop-color="#FFE7DF"></stop>
<stop offset="0.203125" stop-color="#AF9FC8"></stop>
<stop offset="1" stop-color="#48A6C8"></stop>
</linearGradient>
<linearGradient id="swirl_end_24_linear" x1="214.648" y1="189.475" x2="370.591" y2="494.361" gradientUnits="userSpaceOnUse">
<stop stop-color="#FFE7DF"></stop>
<stop offset="0.203125" stop-color="#AF9FC8"></stop>
<stop offset="1" stop-color="#48A6C8"></stop>
</linearGradient>
<linearGradient id="swirl_end_25_linear" x1="209.568" y1="182.815" x2="370.581" y2="494.744" gradientUnits="userSpaceOnUse">
<stop stop-color="#FFE7DF"></stop>
<stop offset="0.203125" stop-color="#AF9FC8"></stop>
<stop offset="1" stop-color="#48A6C8"></stop>
</linearGradient>
<linearGradient id="swirl_end_26_linear" x1="204.488" y1="176.058" x2="370.661" y2="495.087" gradientUnits="userSpaceOnUse">
<stop stop-color="#FFE7DF"></stop>
<stop offset="0.203125" stop-color="#AF9FC8"></stop>
<stop offset="1" stop-color="#48A6C8"></stop>
</linearGradient>
<linearGradient id="swirl_end_27_linear" x1="199.409" y1="169.213" x2="370.825" y2="495.395" gradientUnits="userSpaceOnUse">
<stop stop-color="#FFE7DF"></stop>
<stop offset="0.203125" stop-color="#AF9FC8"></stop>
<stop offset="1" stop-color="#48A6C8"></stop>
</linearGradient>
<linearGradient id="swirl_end_28_linear" x1="194.333" y1="162.297" x2="371.062" y2="495.67" gradientUnits="userSpaceOnUse">
<stop stop-color="#FFE7DF"></stop>
<stop offset="0.203125" stop-color="#AF9FC8"></stop>
<stop offset="1" stop-color="#48A6C8"></stop>
</linearGradient>
<linearGradient id="swirl_end_29_linear" x1="189.256" y1="155.311" x2="371.363" y2="495.912" gradientUnits="userSpaceOnUse">
<stop stop-color="#FFE7DF"></stop>
<stop offset="0.203125" stop-color="#AF9FC8"></stop>
<stop offset="1" stop-color="#48A6C8"></stop>
</linearGradient>
<linearGradient id="swirl_end_30_linear" x1="184.178" y1="148.269" x2="371.72" y2="496.124" gradientUnits="userSpaceOnUse">
<stop stop-color="#FFE7DF"></stop>
<stop offset="0.203125" stop-color="#AF9FC8"></stop>
<stop offset="1" stop-color="#48A6C8"></stop>
</linearGradient>
<linearGradient id="swirl_end_31_linear" x1="179.101" y1="141.17" x2="372.13" y2="496.306" gradientUnits="userSpaceOnUse">
<stop stop-color="#FFE7DF"></stop>
<stop offset="0.203125" stop-color="#AF9FC8"></stop>
<stop offset="1" stop-color="#48A6C8"></stop>
</linearGradient>
<linearGradient id="swirl_end_32_linear" x1="174.025" y1="134.025" x2="372.588" y2="496.458" gradientUnits="userSpaceOnUse">
<stop stop-color="#FFE7DF"></stop>
<stop offset="0.203125" stop-color="#AF9FC8"></stop>
<stop offset="1" stop-color="#48A6C8"></stop>
</linearGradient>
<linearGradient id="swirl_end_33_linear" x1="168.951" y1="126.837" x2="373.087" y2="496.583" gradientUnits="userSpaceOnUse">
<stop stop-color="#FFE7DF"></stop>
<stop offset="0.203125" stop-color="#AF9FC8"></stop>
<stop offset="1" stop-color="#48A6C8"></stop>
</linearGradient>
<linearGradient id="swirl_end_34_linear" x1="163.851" y1="119.665" x2="373.537" y2="496.701" gradientUnits="userSpaceOnUse">
<stop stop-color="#FFE7DF"></stop>
<stop offset="0.203125" stop-color="#AF9FC8"></stop>
<stop offset="1" stop-color="#48A6C8"></stop>
</linearGradient>
<linearGradient id="swirl_end_35_linear" x1="158.778" y1="112.397" x2="374.115" y2="496.771" gradientUnits="userSpaceOnUse">
<stop stop-color="#FFE7DF"></stop>
<stop offset="0.203125" stop-color="#AF9FC8"></stop>
<stop offset="1" stop-color="#48A6C8"></stop>
</linearGradient>
<linearGradient id="swirl_end_36_linear" x1="153.706" y1="105.094" x2="374.726" y2="496.815" gradientUnits="userSpaceOnUse">
<stop stop-color="#FFE7DF"></stop>
<stop offset="0.203125" stop-color="#AF9FC8"></stop>
<stop offset="1" stop-color="#48A6C8"></stop>
</linearGradient>
<linearGradient id="swirl_end_37_linear" x1="148.633" y1="97.7601" x2="375.365" y2="496.834" gradientUnits="userSpaceOnUse">
<stop stop-color="#FFE7DF"></stop>
<stop offset="0.203125" stop-color="#AF9FC8"></stop>
<stop offset="1" stop-color="#48A6C8"></stop>
</linearGradient>
<linearGradient id="swirl_end_38_linear" x1="143.562" y1="90.401" x2="376.03" y2="496.831" gradientUnits="userSpaceOnUse">
<stop stop-color="#FFE7DF"></stop>
<stop offset="0.203125" stop-color="#AF9FC8"></stop>
<stop offset="1" stop-color="#48A6C8"></stop>
</linearGradient>
<linearGradient id="swirl_end_39_linear" x1="138.491" y1="83.0142" x2="376.72" y2="496.804" gradientUnits="userSpaceOnUse">
<stop stop-color="#FFE7DF"></stop>
<stop offset="0.203125" stop-color="#AF9FC8"></stop>
<stop offset="1" stop-color="#48A6C8"></stop>
</linearGradient>
<linearGradient id="swirl_end_40_linear" x1="133.419" y1="75.6026" x2="377.432" y2="496.757" gradientUnits="userSpaceOnUse">
<stop stop-color="#FFE7DF"></stop>
<stop offset="0.203125" stop-color="#AF9FC8"></stop>
<stop offset="1" stop-color="#48A6C8"></stop>
</linearGradient>
<linearGradient id="swirl_end_41_linear" x1="128.344" y1="68.1716" x2="378.157" y2="496.689" gradientUnits="userSpaceOnUse">
<stop stop-color="#FFE7DF"></stop>
<stop offset="0.203125" stop-color="#AF9FC8"></stop>
<stop offset="1" stop-color="#48A6C8"></stop>
</linearGradient>
<linearGradient id="swirl_end_42_linear" x1="123.276" y1="60.6065" x2="381.311" y2="497.822" gradientUnits="userSpaceOnUse">
<stop stop-color="#FFE7DF"></stop>
<stop offset="0.203125" stop-color="#AF9FC8"></stop>
<stop offset="1" stop-color="#48A6C8"></stop>
</linearGradient>
<linearGradient id="swirl_end_43_linear" x1="118.207" y1="52.7985" x2="389.063" y2="501.101" gradientUnits="userSpaceOnUse">
<stop stop-color="#FFE7DF"></stop>
<stop offset="0.203125" stop-color="#AF9FC8"></stop>
<stop offset="1" stop-color="#48A6C8"></stop>
</linearGradient>
<linearGradient id="swirl_end_44_linear" x1="113.136" y1="44.9767" x2="396.819" y2="504.138" gradientUnits="userSpaceOnUse">
<stop stop-color="#FFE7DF"></stop>
<stop offset="0.203125" stop-color="#AF9FC8"></stop>
<stop offset="1" stop-color="#48A6C8"></stop>
</linearGradient>
<linearGradient id="swirl_end_45_linear" x1="108.066" y1="37.1391" x2="404.576" y2="506.95" gradientUnits="userSpaceOnUse">
<stop stop-color="#FFE7DF"></stop>
<stop offset="0.203125" stop-color="#AF9FC8"></stop>
<stop offset="1" stop-color="#48A6C8"></stop>
</linearGradient>
<linearGradient id="swirl_end_46_linear" x1="102.995" y1="29.2842" x2="412.319" y2="509.537" gradientUnits="userSpaceOnUse">
<stop stop-color="#FFE7DF"></stop>
<stop offset="0.203125" stop-color="#AF9FC8"></stop>
<stop offset="1" stop-color="#48A6C8"></stop>
</linearGradient>
<linearGradient id="swirl_end_47_linear" x1="97.9253" y1="21.4167" x2="420.051" y2="511.92" gradientUnits="userSpaceOnUse">
<stop stop-color="#FFE7DF"></stop>
<stop offset="0.203125" stop-color="#AF9FC8"></stop>
<stop offset="1" stop-color="#48A6C8"></stop>
</linearGradient>
<linearGradient id="swirl_end_48_linear" x1="92.8242" y1="13.5307" x2="427.828" y2="514.17" gradientUnits="userSpaceOnUse">
<stop stop-color="#FFE7DF"></stop>
<stop offset="0.203125" stop-color="#AF9FC8"></stop>
<stop offset="1" stop-color="#48A6C8"></stop>
</linearGradient>
<linearGradient id="swirl_end_49_linear" x1="87.7652" y1="5.63803" x2="435.495" y2="516.154" gradientUnits="userSpaceOnUse">
<stop stop-color="#FFE7DF"></stop>
<stop offset="0.203125" stop-color="#AF9FC8"></stop>
<stop offset="1" stop-color="#48A6C8"></stop>
</linearGradient>
<linearGradient id="swirl_end_50_linear" x1="82.7057" y1="-2.26412" x2="443.138" y2="517.968" gradientUnits="userSpaceOnUse">
<stop stop-color="#FFE7DF"></stop>
<stop offset="0.203125" stop-color="#AF9FC8"></stop>
<stop offset="1" stop-color="#48A6C8"></stop>
</linearGradient>
<linearGradient id="swirl_end_51_linear" x1="77.6478" y1="-10.1778" x2="450.755" y2="519.62" gradientUnits="userSpaceOnUse">
<stop stop-color="#FFE7DF"></stop>
<stop offset="0.203125" stop-color="#AF9FC8"></stop>
<stop offset="1" stop-color="#48A6C8"></stop>
</linearGradient>
</defs>
</svg>