<svg width="126" height="50" viewBox="0 0 126 50" fill="none" xmlns="http://www.w3.org/2000/svg">
<g clip-path="url(#clip0_151_7861)">
<g filter="url(#filter0_i_151_7861)">
<path d="M23.8951 3.63942C23.9884 2.92807 24.7345 0.161722 25.5359 0.008387C25.714 -0.0253361 25.8532 0.0426384 25.9533 0.212308C26.1451 0.533731 26.3068 0.870433 26.4386 1.22242C27.2511 3.39756 27.5451 5.50314 26.9776 7.8253C26.8069 8.52083 26.3896 9.5025 25.6403 9.68112C25.2683 9.76965 24.9632 9.63423 24.725 9.27487C23.669 7.68303 23.6438 5.54425 23.8951 3.63942Z" fill="#EF8421"/>
<path d="M16.7816 2.69098C16.8027 2.44543 16.8786 2.24572 17.0092 2.09186C17.0461 2.04865 17.093 2.02547 17.1499 2.02231C17.6858 1.98437 18.5046 2.81902 18.9378 3.23002C20.5565 4.76337 22.3602 7.88539 21.2078 10.1601C20.7067 11.1481 19.891 10.4826 19.3551 9.99888C17.327 8.16992 16.5429 5.37829 16.7816 2.69098Z" fill="#EF8421"/>
<path d="M34.1796 4.90403C33.9825 6.81887 33.2438 8.44021 31.9633 9.76806C31.5508 10.198 30.4331 11.009 29.8767 10.364C29.2855 9.67796 29.5369 8.1857 29.6997 7.38583C29.8151 6.82782 30.0459 6.35517 30.264 5.81771C30.7983 4.50093 32.357 2.83638 33.6579 2.09816C33.7032 2.07286 33.7512 2.06443 33.8018 2.07286C34.0505 2.11291 34.1875 2.23779 34.2128 2.44751C34.2918 3.10511 34.2808 3.92395 34.1796 4.90403Z" fill="#EF8421"/>
<path d="M15.9564 9.7143C16.535 10.4746 17.0124 11.5053 16.957 12.4806C16.8543 14.2843 14.2871 12.7842 13.6027 12.1898C11.985 10.7861 10.8916 9.04721 10.3226 6.97324C10.1929 6.50059 10.4206 5.94732 10.9975 6.14334C13.0188 6.8315 14.6718 8.02182 15.9564 9.7143Z" fill="#EF8421"/>
<path d="M40.6544 6.24769C40.707 6.27879 40.7489 6.3252 40.7746 6.3808C40.8003 6.4364 40.8085 6.49857 40.7983 6.5591C40.3946 8.90707 39.287 10.8272 37.4755 12.3194C36.8021 12.8727 34.8151 13.9065 34.2397 12.9201C33.7876 12.1487 34.4531 10.6549 34.9194 9.99885C36.0217 8.44759 37.4449 7.28362 39.189 6.50693C39.5005 6.36941 40.3525 6.06906 40.6544 6.24769Z" fill="#EF8421"/>
<path d="M5.96283 12.1803C8.11426 12.1803 10.1203 12.9185 11.8433 14.1879C12.5831 14.7348 13.7276 16.0706 13.4399 17.0759C13.345 17.4047 12.9498 17.5644 12.6527 17.6023C10.8569 17.8316 8.90148 16.755 7.58312 15.6011C7.08518 15.1664 4.54488 12.8774 5.45066 12.2909C5.56448 12.2172 5.7352 12.1803 5.96283 12.1803Z" fill="#EF8421"/>
<path d="M37.5656 16.8784C37.5403 15.5695 39.1385 14.2006 40.1881 13.5999C41.5708 12.8074 43.0756 12.3421 44.7028 12.204C45.471 12.1377 46.2757 12.2989 45.5896 13.2821C44.1258 15.3798 41.1951 17.8964 38.4192 17.5139C38.092 17.468 37.5735 17.2862 37.5656 16.8784Z" fill="#EF8421"/>
<path d="M10.6467 23.271C8.49522 24.3017 5.45856 23.2663 3.56479 22.1155C3.13166 21.8515 2.45351 21.3867 2.50252 20.8809C2.50778 20.8313 2.52834 20.7887 2.56417 20.7528C3.38933 19.9451 5.96915 19.9735 7.19582 20.062C8.50945 20.1553 10.5186 20.7607 11.2426 21.9858C11.5461 22.498 11.1019 23.0528 10.6467 23.271Z" fill="#EF8421"/>
<path d="M48.1567 21.5796C46.4874 22.8284 44.5842 23.6456 42.5371 23.6188C41.6866 23.6077 40.8267 23.5318 40.2149 23.0418C39.4704 22.4474 40.0189 21.627 40.6165 21.2334C42.7126 19.8471 45.4141 19.7617 47.7284 20.3829C47.9212 20.4346 48.153 20.5631 48.4239 20.7686C48.4692 20.8034 48.495 20.8493 48.5013 20.9062C48.5298 21.1612 48.4149 21.3857 48.1567 21.5796Z" fill="#EF8421"/>
<path d="M6.36748 30.8793C5.2483 30.9125 4.04217 30.8698 2.97831 30.492C1.78167 30.0683 3.47151 28.9144 3.88251 28.6741C5.55655 27.6924 7.39814 26.97 9.36937 27.0222C10.0823 27.0412 11.4528 27.4569 11.2995 28.3579C11.1936 28.9808 10.3684 29.6241 9.83254 29.9245C8.75656 30.5252 7.60154 30.8434 6.36748 30.8793Z" fill="#EF8421"/>
<path d="M48.0003 30.473C45.6687 31.1859 42.1451 31.1559 40.2687 29.2621C39.8909 28.8812 39.4878 28.1904 39.9684 27.7335C40.3162 27.4016 40.6892 27.1913 41.1888 27.1265C43.7354 26.8025 46.5507 28.1366 48.4145 29.7411C48.4382 29.7614 48.4573 29.7866 48.4704 29.815C48.4835 29.8434 48.4903 29.8743 48.4903 29.9055C48.4935 30.1827 48.3301 30.3718 48.0003 30.473Z" fill="#EF8421"/>
<path d="M9.60494 33.2314C10.5581 32.7398 11.8828 32.283 12.9325 32.5596C14.1006 32.8679 13.1964 34.3727 12.7775 34.926C11.9097 36.0737 10.6135 36.9715 9.24926 37.4394C8.19015 37.8014 6.86546 38.135 5.69095 38.1429C5.50547 38.145 5.37163 38.1007 5.28943 38.0101C5.17034 37.8784 5.1656 37.7092 5.2752 37.5027C6.2732 35.6289 7.71644 34.2052 9.60494 33.2314Z" fill="#EF8421"/>
<path d="M37.6273 33.2568C37.651 32.362 39.0278 32.4822 39.578 32.5976C40.5707 32.8052 41.4712 33.2146 42.2795 33.8258C43.4788 34.7322 44.5363 35.7813 45.4521 36.9732C45.6544 37.2371 45.9374 37.7193 45.6892 38.0655C45.6586 38.1087 45.617 38.1313 45.5643 38.1334C44.6001 38.1809 43.7259 37.9991 42.7537 37.7572C41.311 37.3968 40.0411 36.697 38.9441 35.658C38.3276 35.0731 37.6036 34.1246 37.6273 33.2568Z" fill="#EF8421"/>
<path d="M10.4475 42.8299C10.8037 41.6327 11.3417 40.5241 12.0614 39.504C12.6253 38.7052 13.3319 38.066 14.1813 37.5865C14.8642 37.1992 16.6157 36.5353 16.7816 37.8394C16.8364 38.2747 16.7579 38.7368 16.5461 39.2258C15.487 41.6791 13.1538 43.32 10.7273 44.24C10.7043 44.2485 10.6798 44.2523 10.6554 44.2512C10.6309 44.2502 10.607 44.2442 10.585 44.2336C10.3395 44.1135 10.2304 43.9064 10.2578 43.6124C10.2704 43.4722 10.3337 43.2114 10.4475 42.8299Z" fill="#EF8421"/>
<path d="M40.5532 42.7161C40.6702 43.1523 41.1381 44.6146 40.0363 44.1609C37.8216 43.2488 35.9105 41.8024 34.6917 39.7157C34.2649 38.9854 33.7022 37.1628 35.1533 37.1043C35.5759 37.0875 35.9653 37.1554 36.3215 37.3082C38.4982 38.2393 39.9604 40.5014 40.5532 42.7161Z" fill="#EF8421"/>
<path d="M21.203 43.4528C20.6197 45.2849 19.2824 46.7439 17.8707 47.9659C17.7285 48.0876 17.5625 48.1556 17.3997 48.2346C17.3582 48.2545 17.3129 48.2651 17.267 48.2657C17.221 48.2663 17.1754 48.2569 17.1333 48.2381C17.0912 48.2194 17.0536 48.1917 17.0232 48.1569C16.9928 48.1222 16.9702 48.0813 16.957 48.037C16.936 47.9664 16.907 47.8979 16.8701 47.8315C16.8596 47.8116 16.8527 47.7897 16.8496 47.7667C16.7189 46.52 16.7626 45.4119 16.9808 44.4423C17.1188 43.8269 17.4055 43.0976 17.8407 42.2545C18.3645 41.2355 19.1195 40.434 20.1059 39.8502C20.5475 39.5878 20.8932 39.6826 21.1429 40.1347C21.6662 41.0863 21.5192 42.4553 21.203 43.4528Z" fill="#EF8421"/>
<path d="M31.9523 40.5141C33.7275 42.3399 34.4404 44.7822 34.2065 47.3288C34.1116 48.3515 33.6769 48.41 32.9735 47.7714C31.7009 46.6174 30.7398 45.6136 30.0475 43.8764C29.706 43.0185 29.5706 42.0485 29.6412 40.9662C29.6612 40.6627 29.7039 40.4366 29.7692 40.288C30.264 39.1799 31.4022 39.9482 31.9523 40.5141Z" fill="#EF8421"/>
<path d="M26.5492 48.3942C26.3627 48.8843 26.0908 50.2263 25.3194 49.9671C25.2709 49.9513 25.2319 49.9223 25.2024 49.8801C24.4547 48.8384 24.1306 47.3051 23.9552 46.178C23.8529 45.5193 23.845 44.651 23.9314 43.5729C23.9978 42.7382 24.2645 41.9758 24.7313 41.2855C25.6861 39.8691 26.4148 41.2744 26.7768 42.1296C27.0266 42.7198 27.1736 43.5307 27.2179 44.5624C27.2716 45.806 27.0487 47.0832 26.5492 48.3942Z" fill="#EF8421"/>
</g>
<g filter="url(#filter1_i_151_7861)">
<path fill-rule="evenodd" clip-rule="evenodd" d="M25.5188 37C32.4224 37 38.0188 31.4036 38.0188 24.5C38.0188 17.5964 32.4224 12 25.5188 12C18.6152 12 13.0188 17.5964 13.0188 24.5C13.0188 31.4036 18.6152 37 25.5188 37ZM25.5188 34.5C31.0416 34.5 35.5188 30.0228 35.5188 24.5C35.5188 18.9772 31.0416 14.5 25.5188 14.5C19.996 14.5 15.5188 18.9772 15.5188 24.5C15.5188 30.0228 19.996 34.5 25.5188 34.5Z" fill="#EF8421"/>
</g>
</g>
<g filter="url(#filter2_i_151_7861)">
<path d="M112.031 30.8906C112.012 30.8485 111.981 30.8129 111.942 30.7881C111.903 30.7632 111.857 30.7503 111.811 30.7508L105.383 30.8355C105.31 30.837 105.244 30.861 105.186 30.9076C104.938 31.1081 104.755 31.3645 104.638 31.6766C104.229 32.7697 103.731 34.098 102.566 34.3692C101.451 34.6277 100.559 33.6489 101.015 32.5325C101.699 30.8483 102.445 29.234 103.064 27.518C103.178 27.1981 103.436 26.8824 103.527 26.6346C104.091 25.0782 104.504 24.0443 104.767 23.5331C105.788 21.5417 106.343 19.8342 107.33 18.0398C108.57 15.7878 109.692 17.7072 110.243 18.9847C112.124 23.3403 113.999 27.6987 115.868 32.06C116.075 32.5452 116.351 33.043 116.183 33.4074C115.645 34.5726 114.463 34.7781 113.516 33.9434C112.597 33.1299 112.495 31.952 112.031 30.8906ZM106.337 27.7213C106.332 27.7313 106.33 27.7423 106.331 27.7533C106.331 27.7643 106.335 27.7749 106.341 27.7841C106.347 27.7934 106.355 27.8011 106.365 27.8064C106.374 27.8117 106.385 27.8145 106.396 27.8146L110.711 27.8442C110.722 27.844 110.733 27.8412 110.742 27.836C110.751 27.8308 110.759 27.8234 110.765 27.8144C110.771 27.8054 110.775 27.7951 110.776 27.7844C110.776 27.7738 110.775 27.763 110.771 27.7531L108.648 22.7386C108.643 22.7274 108.634 22.7179 108.624 22.7113C108.613 22.7047 108.601 22.7011 108.589 22.7011C108.576 22.7011 108.564 22.7047 108.554 22.7113C108.543 22.7179 108.535 22.7274 108.529 22.7386L106.337 27.7213Z" fill="#553918"/>
<path d="M62.9265 20.1053C62.8615 20.0771 62.7697 20.0616 62.651 20.0587C61.4506 20.0206 60.2501 20.0086 59.0496 20.0227C58.0137 20.0375 56.9629 19.6456 57.001 18.5059C57.0285 17.6966 57.7086 17.0801 58.4924 17.078C62.0967 17.0695 65.701 17.0702 69.3053 17.0801C70.3348 17.0844 71.0636 16.989 71.5784 17.7538C72.3114 18.8406 71.6377 20.0142 70.2776 19.9909C68.9698 19.9698 67.6888 19.9768 66.4347 20.0121C66.3421 20.0149 66.2543 20.0536 66.1898 20.12C66.1254 20.1865 66.0893 20.2754 66.0894 20.368C66.0823 24.3762 66.0873 28.3597 66.1042 32.3185C66.107 33.0007 66.0336 33.4801 65.8839 33.757C65.3479 34.7548 63.5874 34.4582 63.2061 33.4286C63.1256 33.2097 63.0868 32.7824 63.0896 32.1469C63.1122 28.2234 63.1164 24.2993 63.1023 20.3744C63.1023 20.2473 63.0437 20.1576 62.9265 20.1053Z" fill="#553918"/>
<path d="M79.0143 31.3546C81.13 31.3786 83.2669 31.3779 85.4249 31.3525C85.9228 31.3461 86.5181 31.3376 86.9333 31.594C87.9608 32.2274 87.8569 33.7697 86.6663 34.1468C86.3401 34.2499 85.9263 34.3028 85.4249 34.3056C83.1285 34.3184 80.832 34.3261 78.5356 34.3289C77.7941 34.3289 77.2489 34.2308 76.9001 34.0345C76.2123 33.6447 75.8641 32.9837 75.8556 32.0516C75.8359 29.7382 75.8309 25.6579 75.8408 19.8109C75.8422 18.9875 75.9305 18.4049 76.1056 18.0631C76.4291 17.436 76.9933 17.1084 77.7983 17.0801C79.1132 17.0307 81.731 17.0427 85.6516 17.1161C86.5816 17.1352 87.5243 17.3894 87.6409 18.383C87.7764 19.5355 86.8485 20.0397 85.8486 20.0375C83.6468 20.0291 81.4365 20.0284 79.2177 20.0354C79.1216 20.0354 79.0295 20.0736 78.9615 20.1415C78.8936 20.2095 78.8554 20.3016 78.8554 20.3977L78.8576 24.0542C78.8575 24.138 78.8904 24.2184 78.949 24.2782C79.0076 24.338 79.0874 24.3725 79.1711 24.3741C80.8249 24.408 82.4512 24.4087 84.05 24.3762C84.7039 24.3621 85.1792 24.4461 85.4758 24.6283C86.3337 25.1537 86.2787 26.696 85.3402 27.1621C85.1043 27.2793 84.7286 27.3393 84.2131 27.3421C82.5593 27.3492 80.873 27.352 79.1542 27.3506C79.1139 27.3506 79.0741 27.3586 79.0369 27.374C78.9998 27.3895 78.966 27.4122 78.9377 27.4407C78.9093 27.4693 78.8869 27.5031 78.8717 27.5404C78.8565 27.5777 78.8488 27.6176 78.8491 27.6578L78.8745 31.2126C78.875 31.2501 78.89 31.2859 78.9161 31.3124C78.9422 31.3389 78.9774 31.354 79.0143 31.3546Z" fill="#553918"/>
<path d="M89.234 38.1952C91.4711 40.2883 94.7569 38.1168 94.74 35.3882C94.6863 27.5794 94.6658 22.0183 94.6786 18.705C94.6828 17.9699 95.0387 17.1966 95.8353 17.0674C97.1742 16.8513 97.547 18.4042 97.5512 19.4126C97.5745 24.8063 97.5089 29.6111 97.5576 35.6001C97.5873 39.4769 94.5112 42.3115 90.6132 41.9725C89.1556 41.8468 87.9784 41.2536 87.0816 40.193C86.4482 39.4451 86.3507 38.1359 87.3274 37.6169C88.1218 37.1953 88.5942 37.5957 89.234 38.1952Z" fill="#553918"/>
</g>
<defs>
<filter id="filter0_i_151_7861" x="2.5" y="0" width="46.0056" height="54" filterUnits="userSpaceOnUse" color-interpolation-filters="sRGB">
<feFlood flood-opacity="0" result="BackgroundImageFix"/>
<feBlend mode="normal" in="SourceGraphic" in2="BackgroundImageFix" result="shape"/>
<feColorMatrix in="SourceAlpha" type="matrix" values="0 0 0 0 0 0 0 0 0 0 0 0 0 0 0 0 0 0 127 0" result="hardAlpha"/>
<feOffset dy="4"/>
<feGaussianBlur stdDeviation="2"/>
<feComposite in2="hardAlpha" operator="arithmetic" k2="-1" k3="1"/>
<feColorMatrix type="matrix" values="0 0 0 0 0 0 0 0 0 0 0 0 0 0 0 0 0 0 0.25 0"/>
<feBlend mode="normal" in2="shape" result="effect1_innerShadow_151_7861"/>
</filter>
<filter id="filter1_i_151_7861" x="13.0188" y="12" width="25" height="29" filterUnits="userSpaceOnUse" color-interpolation-filters="sRGB">
<feFlood flood-opacity="0" result="BackgroundImageFix"/>
<feBlend mode="normal" in="SourceGraphic" in2="BackgroundImageFix" result="shape"/>
<feColorMatrix in="SourceAlpha" type="matrix" values="0 0 0 0 0 0 0 0 0 0 0 0 0 0 0 0 0 0 127 0" result="hardAlpha"/>
<feOffset dy="4"/>
<feGaussianBlur stdDeviation="2"/>
<feComposite in2="hardAlpha" operator="arithmetic" k2="-1" k3="1"/>
<feColorMatrix type="matrix" values="0 0 0 0 0 0 0 0 0 0 0 0 0 0 0 0 0 0 0.25 0"/>
<feBlend mode="normal" in2="shape" result="effect1_innerShadow_151_7861"/>
</filter>
<filter id="filter2_i_151_7861" x="57" y="17" width="59.235" height="29" filterUnits="userSpaceOnUse" color-interpolation-filters="sRGB">
<feFlood flood-opacity="0" result="BackgroundImageFix"/>
<feBlend mode="normal" in="SourceGraphic" in2="BackgroundImageFix" result="shape"/>
<feColorMatrix in="SourceAlpha" type="matrix" values="0 0 0 0 0 0 0 0 0 0 0 0 0 0 0 0 0 0 127 0" result="hardAlpha"/>
<feOffset dy="4"/>
<feGaussianBlur stdDeviation="2"/>
<feComposite in2="hardAlpha" operator="arithmetic" k2="-1" k3="1"/>
<feColorMatrix type="matrix" values="0 0 0 0 0 0 0 0 0 0 0 0 0 0 0 0 0 0 0.25 0"/>
<feBlend mode="normal" in2="shape" result="effect1_innerShadow_151_7861"/>
</filter>
<clipPath id="clip0_151_7861">
<rect width="50" height="50" fill="white" transform="translate(0.5)"/>
</clipPath>
</defs>
</svg>
