<svg width="150" height="172" viewBox="0 0 150 172" fill="none" xmlns="http://www.w3.org/2000/svg">
<g filter="url(#filter0_i_157_8220)">
<path d="M71.7901 15.2788C71.9767 13.8561 73.4689 8.32344 75.0718 8.01677C75.428 7.94933 75.7062 8.08528 75.9065 8.42462C76.2901 9.06746 76.6136 9.74087 76.877 10.4448C78.5021 14.7951 79.0901 19.0063 77.9551 23.6506C77.6137 25.0417 76.779 27.005 75.2805 27.3622C74.5365 27.5393 73.9263 27.2685 73.4499 26.5497C71.338 23.3661 71.2875 19.0885 71.7901 15.2788Z" fill="white"/>
<path d="M57.5633 13.3818C57.6054 12.8907 57.7572 12.4913 58.0185 12.1836C58.0923 12.0972 58.1861 12.0508 58.2999 12.0445C59.3717 11.9686 61.0094 13.6379 61.8756 14.4599C65.113 17.5266 68.7204 23.7707 66.4156 28.3201C65.4134 30.2961 63.782 28.9651 62.7103 27.9976C58.654 24.3397 57.0859 18.7565 57.5633 13.3818Z" fill="white"/>
<path d="M92.3592 17.8083C91.965 21.638 90.4875 24.8807 87.9267 27.5364C87.1015 28.3963 84.8663 30.0182 83.7534 28.7283C82.571 27.3562 83.0737 24.3717 83.3993 22.7719C83.6301 21.6559 84.0917 20.7106 84.528 19.6357C85.5966 17.0021 88.7139 13.673 91.3159 12.1966C91.4065 12.146 91.5024 12.1291 91.6035 12.146C92.101 12.2261 92.375 12.4758 92.4256 12.8953C92.5836 14.2105 92.5615 15.8481 92.3592 17.8083Z" fill="white"/>
<path d="M55.9129 27.4286C57.07 28.9493 58.0248 31.0106 57.9142 32.9613C57.7087 36.5686 52.5743 33.5683 51.2054 32.3796C47.9701 29.5721 45.7833 26.0944 44.6452 21.9465C44.3859 21.0012 44.8412 19.8946 45.9951 20.2867C50.0377 21.663 53.3436 24.0436 55.9129 27.4286Z" fill="white"/>
<path d="M105.309 20.4951C105.414 20.5573 105.498 20.6502 105.549 20.7614C105.601 20.8726 105.617 20.9969 105.597 21.118C104.789 25.8139 102.574 29.6541 98.951 32.6386C97.6042 33.7452 93.6301 35.8128 92.4793 33.84C91.5751 32.2972 92.9061 29.3095 93.8388 27.9975C96.0434 24.8949 98.8899 22.567 102.378 21.0136C103.001 20.7386 104.705 20.1379 105.309 20.4951Z" fill="white"/>
<path d="M35.9257 32.3604C40.2285 32.3604 44.2405 33.8368 47.6866 36.3755C49.1662 37.4694 51.4551 40.1409 50.8797 42.1516C50.6901 42.8092 49.8997 43.1286 49.3053 43.2044C45.7138 43.6629 41.803 41.5098 39.1662 39.2019C38.1704 38.3325 33.0898 33.7546 34.9013 32.5817C35.129 32.4341 35.4704 32.3604 35.9257 32.3604Z" fill="white"/>
<path d="M99.1311 41.7567C99.0806 39.1389 102.277 36.401 104.376 35.1996C107.141 33.6146 110.151 32.6841 113.406 32.408C114.942 32.2752 116.551 32.5977 115.179 34.5641C112.252 38.7595 106.39 43.7927 100.838 43.0276C100.184 42.9359 99.147 42.5723 99.1311 41.7567Z" fill="white"/>
<path d="M45.2933 54.5421C40.9904 56.6034 34.9171 54.5326 31.1296 52.231C30.2633 51.703 28.907 50.7736 29.005 49.7619C29.0156 49.6628 29.0567 49.5774 29.1283 49.5058C30.7787 47.8902 35.9383 47.9471 38.3916 48.1242C41.0189 48.3107 45.0372 49.5216 46.4852 51.9718C47.0922 52.9961 46.2038 54.1058 45.2933 54.5421Z" fill="white"/>
<path d="M120.314 51.1592C116.975 53.6568 113.168 55.2913 109.074 55.2375C107.373 55.2154 105.653 55.0637 104.43 54.0836C102.941 52.8948 104.038 51.254 105.233 50.4668C109.425 47.6941 114.828 47.5234 119.457 48.7659C119.842 48.8691 120.306 49.1263 120.848 49.5373C120.938 49.6068 120.99 49.6985 121.003 49.8123C121.06 50.3224 120.83 50.7713 120.314 51.1592Z" fill="white"/>
<path d="M36.735 69.7585C34.4967 69.8249 32.0844 69.7396 29.9567 68.984C27.5634 68.1367 30.9431 65.8287 31.7651 65.3482C35.1132 63.3849 38.7964 61.94 42.7388 62.0444C44.1646 62.0823 46.9057 62.9138 46.599 64.7159C46.3872 65.9615 44.7369 67.2483 43.6651 67.849C41.5132 69.0504 39.2031 69.6869 36.735 69.7585Z" fill="white"/>
<path d="M120.001 68.946C115.337 70.3719 108.29 70.3118 104.537 66.5243C103.782 65.7623 102.976 64.3807 103.937 63.4671C104.632 62.8031 105.378 62.3827 106.377 62.253C111.471 61.6049 117.101 64.2733 120.829 67.4822C120.876 67.5228 120.915 67.5732 120.941 67.63C120.967 67.6868 120.981 67.7485 120.981 67.811C120.987 68.3653 120.66 68.7437 120.001 68.946Z" fill="white"/>
<path d="M43.2098 74.4627C45.1162 73.4795 47.7656 72.5658 49.8649 73.1191C52.2012 73.7356 50.3928 76.7454 49.555 77.8519C47.8193 80.1472 45.2269 81.943 42.4985 82.8788C40.3802 83.6028 37.7309 84.2699 35.3818 84.2857C35.0109 84.2899 34.7432 84.2013 34.5788 84.0201C34.3406 83.7566 34.3311 83.4183 34.5503 83.0052C36.5463 79.2577 39.4328 76.4102 43.2098 74.4627Z" fill="white"/>
<path d="M99.2545 74.5135C99.3019 72.7241 102.056 72.9644 103.156 73.1952C105.141 73.6104 106.942 74.4292 108.559 75.6517C110.957 77.4643 113.073 79.5625 114.904 81.9463C115.309 82.4743 115.875 83.4386 115.378 84.1309C115.317 84.2174 115.234 84.2627 115.129 84.2669C113.2 84.3617 111.452 83.9982 109.507 83.5145C106.622 82.7936 104.082 81.3941 101.888 79.3159C100.655 78.1461 99.2071 76.2492 99.2545 74.5135Z" fill="white"/>
<path d="M44.8949 93.66C45.6073 91.2656 46.6833 89.0483 48.1228 87.0081C49.2505 85.4104 50.6637 84.1321 52.3625 83.1731C53.7283 82.3985 57.2312 81.0707 57.5632 83.679C57.6728 84.5494 57.5158 85.4737 57.0921 86.4516C54.9739 91.3584 50.3075 94.64 45.4545 96.48C45.4085 96.4971 45.3596 96.5048 45.3107 96.5026C45.2618 96.5004 45.214 96.4885 45.17 96.4674C44.6789 96.2271 44.4607 95.813 44.5155 95.2249C44.5408 94.9446 44.6673 94.4229 44.8949 93.66Z" fill="white"/>
<path d="M105.107 93.4321C105.34 94.3047 106.276 97.2291 104.073 96.3217C99.6434 94.4975 95.8211 91.6047 93.3835 87.4315C92.5299 85.9709 91.4044 82.3256 94.3067 82.2086C95.1519 82.1749 95.9307 82.3109 96.6431 82.6165C100.996 84.4786 103.921 89.0028 105.107 93.4321Z" fill="white"/>
<path d="M66.4061 94.9054C65.2394 98.5696 62.5648 101.488 59.7415 103.932C59.457 104.175 59.125 104.311 58.7994 104.469C58.7165 104.509 58.6259 104.53 58.534 104.531C58.442 104.533 58.3508 104.514 58.2666 104.476C58.1824 104.439 58.1073 104.383 58.0465 104.314C57.9856 104.244 57.9405 104.162 57.9142 104.074C57.872 103.933 57.814 103.796 57.7403 103.663C57.7193 103.623 57.7054 103.579 57.6992 103.533C57.4378 101.04 57.5253 98.8236 57.9616 96.8845C58.2377 95.6536 58.811 94.1951 59.6815 92.5089C60.729 90.4708 62.2391 88.8679 64.2119 87.7002C65.0951 87.1754 65.7864 87.3651 66.2859 88.2693C67.3324 90.1726 67.0384 92.9105 66.4061 94.9054Z" fill="white"/>
<path d="M87.9046 89.0283C91.455 92.6799 92.8808 97.5644 92.4129 102.658C92.2232 104.703 91.3538 104.82 89.9469 103.543C87.4019 101.235 85.4797 99.2274 84.0949 95.7529C83.412 94.0372 83.1412 92.0971 83.2824 89.9325C83.3224 89.3255 83.4078 88.8733 83.5385 88.5762C84.528 86.3599 86.8043 87.8964 87.9046 89.0283Z" fill="white"/>
<path d="M77.0984 104.788C76.7253 105.768 76.1816 108.452 74.6387 107.934C74.5418 107.902 74.4638 107.844 74.4048 107.76C72.9094 105.677 72.2613 102.61 71.9103 100.356C71.7059 99.0384 71.6901 97.3017 71.8629 95.1455C71.9957 93.4762 72.5289 91.9513 73.4626 90.5707C75.3722 87.738 76.8297 90.5486 77.5537 92.259C78.0532 93.4393 78.3472 95.0612 78.4358 97.1246C78.5432 99.6117 78.0975 102.166 77.0984 104.788Z" fill="white"/>
</g>
<g filter="url(#filter1_i_157_8220)">
<path fill-rule="evenodd" clip-rule="evenodd" d="M75.0376 82C88.8447 82 100.038 70.8071 100.038 57C100.038 43.1929 88.8447 32 75.0376 32C61.2305 32 50.0376 43.1929 50.0376 57C50.0376 70.8071 61.2305 82 75.0376 82ZM75.0376 77C86.0833 77 95.0376 68.0457 95.0376 57C95.0376 45.9543 86.0833 37 75.0376 37C63.9919 37 55.0376 45.9543 55.0376 57C55.0376 68.0457 63.9919 77 75.0376 77Z" fill="white"/>
</g>
<g filter="url(#filter2_i_157_8220)">
<path d="M126.062 149.781C126.024 149.697 125.962 149.626 125.884 149.576C125.806 149.526 125.715 149.501 125.622 149.502L112.767 149.671C112.62 149.674 112.488 149.722 112.373 149.815C111.875 150.216 111.51 150.729 111.275 151.353C110.457 153.539 109.462 156.196 107.131 156.738C104.903 157.255 103.119 155.298 104.03 153.065C105.398 149.697 106.89 146.468 108.127 143.036C108.356 142.396 108.873 141.765 109.055 141.269C110.182 138.156 111.008 136.089 111.534 135.066C113.576 131.083 114.686 127.668 116.66 124.08C119.139 119.576 121.385 123.414 122.486 125.969C126.249 134.681 129.998 143.397 133.736 152.12C134.151 153.09 134.702 154.086 134.367 154.815C133.291 157.145 130.926 157.556 129.032 155.887C127.194 154.26 126.99 151.904 126.062 149.781ZM114.673 143.443C114.664 143.463 114.66 143.485 114.661 143.507C114.663 143.529 114.67 143.55 114.682 143.568C114.693 143.587 114.71 143.602 114.729 143.613C114.748 143.623 114.77 143.629 114.792 143.629L123.423 143.688C123.444 143.688 123.465 143.682 123.484 143.672C123.503 143.662 123.519 143.647 123.53 143.629C123.542 143.611 123.549 143.59 123.551 143.569C123.553 143.548 123.55 143.526 123.541 143.506L119.296 133.477C119.285 133.455 119.268 133.436 119.247 133.423C119.226 133.409 119.202 133.402 119.177 133.402C119.152 133.402 119.128 133.409 119.107 133.423C119.086 133.436 119.069 133.455 119.059 133.477L114.673 143.443Z" fill="white"/>
<path d="M27.8529 128.21C27.723 128.154 27.5394 128.123 27.3021 128.117C24.9011 128.041 22.5002 128.017 20.0992 128.045C18.0273 128.075 15.9257 127.291 16.002 125.012C16.0571 123.393 17.4172 122.16 18.9849 122.156C26.1934 122.139 33.402 122.14 40.6105 122.16C42.6697 122.168 44.1272 121.978 45.1568 123.507C46.6228 125.681 45.2755 128.028 42.5553 127.982C39.9397 127.939 37.3777 127.953 34.8694 128.024C34.6843 128.03 34.5086 128.107 34.3797 128.24C34.2507 128.373 34.1787 128.551 34.1788 128.736C34.1646 136.752 34.1745 144.719 34.2084 152.637C34.2141 154.001 34.0672 154.96 33.7678 155.514C32.6958 157.509 29.1749 156.916 28.4122 154.857C28.2512 154.419 28.1735 153.565 28.1792 152.294C28.2244 144.447 28.2328 136.598 28.2046 128.749C28.2046 128.494 28.0874 128.315 27.8529 128.21Z" fill="white"/>
<path d="M60.0287 150.709C64.26 150.757 68.5337 150.756 72.8498 150.705C73.8455 150.692 75.0361 150.675 75.8666 151.188C77.9215 152.455 77.7139 155.539 75.3327 156.294C74.6802 156.5 73.8526 156.606 72.8498 156.611C68.2569 156.637 63.664 156.652 59.0711 156.658C57.5882 156.658 56.4978 156.462 55.8001 156.069C54.4245 155.289 53.7282 153.967 53.7113 152.103C53.6717 147.476 53.6619 139.316 53.6816 127.622C53.6845 125.975 53.861 124.81 54.2113 124.126C54.8581 122.872 55.9866 122.217 57.5966 122.16C60.2264 122.061 65.4619 122.085 73.3032 122.232C75.1632 122.27 77.0487 122.779 77.2817 124.766C77.5529 127.071 75.6971 128.079 73.6972 128.075C69.2936 128.058 64.873 128.057 60.4354 128.071C60.2433 128.071 60.059 128.147 59.9231 128.283C59.7872 128.419 59.7109 128.603 59.7109 128.795L59.7151 136.108C59.7151 136.276 59.7807 136.437 59.898 136.556C60.0152 136.676 60.1747 136.745 60.3422 136.748C63.6499 136.816 66.9025 136.817 70.1 136.752C71.4078 136.724 72.3583 136.892 72.9515 137.257C74.6675 138.307 74.5573 141.392 72.6803 142.324C72.2086 142.559 71.4573 142.679 70.4263 142.684C67.1186 142.698 63.7459 142.704 60.3083 142.701C60.2278 142.701 60.1481 142.717 60.0738 142.748C59.9995 142.779 59.9321 142.824 59.8754 142.881C59.8187 142.939 59.7738 143.006 59.7434 143.081C59.713 143.155 59.6976 143.235 59.6982 143.316L59.749 150.425C59.7501 150.5 59.7799 150.572 59.8321 150.625C59.8843 150.678 59.9548 150.708 60.0287 150.709Z" fill="white"/>
<path d="M80.468 164.391C84.9423 168.577 91.5139 164.234 91.48 158.777C91.3726 143.159 91.3317 132.037 91.3571 125.41C91.3656 123.94 92.0774 122.393 93.6705 122.135C96.3483 121.703 97.094 124.809 97.1025 126.825C97.1491 137.613 97.0177 147.222 97.1152 159.2C97.1745 166.954 91.0224 172.623 83.2263 171.945C80.3112 171.694 77.9569 170.507 76.1632 168.386C74.8964 166.89 74.7015 164.272 76.6547 163.234C78.2436 162.391 79.1884 163.191 80.468 164.391Z" fill="white"/>
</g>
<defs>
<filter id="filter0_i_157_8220" x="29" y="8" width="92.0112" height="104" filterUnits="userSpaceOnUse" color-interpolation-filters="sRGB">
<feFlood flood-opacity="0" result="BackgroundImageFix"/>
<feBlend mode="normal" in="SourceGraphic" in2="BackgroundImageFix" result="shape"/>
<feColorMatrix in="SourceAlpha" type="matrix" values="0 0 0 0 0 0 0 0 0 0 0 0 0 0 0 0 0 0 127 0" result="hardAlpha"/>
<feOffset dy="4"/>
<feGaussianBlur stdDeviation="2"/>
<feComposite in2="hardAlpha" operator="arithmetic" k2="-1" k3="1"/>
<feColorMatrix type="matrix" values="0 0 0 0 0 0 0 0 0 0 0 0 0 0 0 0 0 0 0.25 0"/>
<feBlend mode="normal" in2="shape" result="effect1_innerShadow_157_8220"/>
</filter>
<filter id="filter1_i_157_8220" x="50.0376" y="32" width="50" height="54" filterUnits="userSpaceOnUse" color-interpolation-filters="sRGB">
<feFlood flood-opacity="0" result="BackgroundImageFix"/>
<feBlend mode="normal" in="SourceGraphic" in2="BackgroundImageFix" result="shape"/>
<feColorMatrix in="SourceAlpha" type="matrix" values="0 0 0 0 0 0 0 0 0 0 0 0 0 0 0 0 0 0 127 0" result="hardAlpha"/>
<feOffset dy="4"/>
<feGaussianBlur stdDeviation="2"/>
<feComposite in2="hardAlpha" operator="arithmetic" k2="-1" k3="1"/>
<feColorMatrix type="matrix" values="0 0 0 0 0 0 0 0 0 0 0 0 0 0 0 0 0 0 0.25 0"/>
<feBlend mode="normal" in2="shape" result="effect1_innerShadow_157_8220"/>
</filter>
<filter id="filter2_i_157_8220" x="16" y="122" width="118.47" height="54" filterUnits="userSpaceOnUse" color-interpolation-filters="sRGB">
<feFlood flood-opacity="0" result="BackgroundImageFix"/>
<feBlend mode="normal" in="SourceGraphic" in2="BackgroundImageFix" result="shape"/>
<feColorMatrix in="SourceAlpha" type="matrix" values="0 0 0 0 0 0 0 0 0 0 0 0 0 0 0 0 0 0 127 0" result="hardAlpha"/>
<feOffset dy="4"/>
<feGaussianBlur stdDeviation="2"/>
<feComposite in2="hardAlpha" operator="arithmetic" k2="-1" k3="1"/>
<feColorMatrix type="matrix" values="0 0 0 0 0 0 0 0 0 0 0 0 0 0 0 0 0 0 0.25 0"/>
<feBlend mode="normal" in2="shape" result="effect1_innerShadow_157_8220"/>
</filter>
</defs>
</svg>
